<svg version="1.2" xmlns="http://www.w3.org/2000/svg" viewBox="0 0 700 700" width="700" height="700"><defs><linearGradient id="P" gradientUnits="userSpaceOnUse"/><linearGradient id="g1" x1="-274.4" y1="642.1" x2="560" y2="57.9" href="#P"><stop stop-color="#58a10d"/><stop offset="1" stop-color="#4a9200"/></linearGradient></defs><style>.a{fill:url(#g1)}</style><path fill-rule="evenodd" class="a" d="m70 116.7c0-25.8 20.9-46.7 46.7-46.7h466.6c25.8 0 46.7 20.9 46.7 46.7v466.6c0 25.8-20.9 46.7-46.7 46.7h-466.6c-25.8 0-46.7-20.9-46.7-46.7zm218.9 216.4c0 34.8 20.6 64.1 49.4 79.4 11.4 6 25.5 1.7 31.5-9.7 6.1-11.4 1.7-25.5-9.6-31.5-15.5-8.2-24.7-22.8-24.7-38.2v-101.8c0-22.8 20.8-44.6 50.8-44.6 29.9 0 50.7 21.8 50.7 44.6v101.8c0 12.9 10.4 23.3 23.3 23.3 12.9 0 23.3-10.4 23.3-23.3v-101.8c0-52.3-45.5-91.2-97.3-91.2-51.9 0-97.4 38.9-97.4 91.2zm41.8 226.9c51.8 0 97.4-38.9 97.4-91.2v-101.8c0-34.8-20.6-64.1-49.4-79.4-11.4-6-25.5-1.7-31.6 9.7-6 11.4-1.7 25.5 9.7 31.5 15.5 8.2 24.6 22.8 24.6 38.2v101.8c0 22.8-20.7 44.6-50.7 44.6-29.9 0-50.7-21.8-50.7-44.6v-101.8c0-12.9-10.4-23.3-23.3-23.3-12.9 0-23.4 10.4-23.4 23.3v101.8c0 52.3 45.6 91.2 97.4 91.2z"/></svg>